<svg width="1161" height="267" viewBox="0 0 1161 267" fill="none" xmlns="http://www.w3.org/2000/svg">
<g id="big-type">
<path d="M0.0447388 263.254V3.72229H55.3426C65.6649 3.72229 74.1193 5.39351 80.7059 8.73596C87.2925 11.9801 92.4044 16.7972 96.0418 23.1871C99.6792 29.5771 102.186 37.3434 103.562 46.486C105.037 55.6285 105.774 66 105.774 77.6002V82.1715C105.774 99.277 104.349 113.728 101.498 125.525C98.7453 137.224 93.7807 146.12 86.6043 152.215C79.4279 158.212 69.2039 161.211 55.9324 161.211H34.2557V263.254H0.0447388ZM34.2557 132.751H50.7713C56.6697 132.751 61.0936 131.178 64.0428 128.032C67.0903 124.788 69.1056 119.479 70.0887 112.106C71.1701 104.635 71.7108 94.6074 71.7108 82.024V77.0104C71.7108 61.3795 70.4328 49.7301 67.8768 42.0621C65.4191 34.3942 59.9139 30.5602 51.3611 30.5602H34.2557V132.751ZM122.744 263.254V3.72229H204.29V32.7721H156.955V115.94H201.783V144.695H156.955V234.204H205.322V263.254H122.744ZM251.991 263.254V32.7721H222.498V3.72229H313.777V32.7721H286.054V263.254H251.991ZM331.478 263.254V3.72229H413.024V32.7721H365.689V115.94H410.517V144.695H365.689V234.204H414.056V263.254H331.478ZM530.993 263.254L497.814 3.72229H528.928L549.72 196.749L577 3.72229H604.87L632.593 196.749L650.583 3.72229H681.698L651.468 263.254H617.405L591.599 79.6647L564.614 263.254H530.993ZM677.433 263.254L715.773 3.72229H758.979L800.416 263.254H768.269L761.338 215.034H716.51L710.169 263.254H677.433ZM720.049 187.459H757.357L738.187 53.1217H737.745L720.049 187.459ZM820.919 263.254V3.72229H855.129V234.499H903.939V263.254H820.919ZM924.07 263.254V3.72229H976.861C990.231 3.72229 1000.75 6.47489 1008.42 11.9801C1016.18 17.4853 1021.69 25.399 1024.93 35.7213C1028.28 45.9453 1029.95 58.2337 1029.95 72.5865L1030.09 187.901C1030.09 205.203 1028.28 219.408 1024.64 230.517C1021.1 241.626 1015.35 249.884 1007.39 255.291C999.423 260.599 988.855 263.254 975.682 263.254H924.07ZM958.281 236.121H972.733C977.943 236.121 982.219 235.039 985.562 232.877C989.002 230.616 991.558 226.585 993.23 220.785C994.999 214.985 995.884 206.629 995.884 195.716L995.736 72.5865C995.736 57.5455 993.918 46.7809 990.28 40.2926C986.741 33.8043 980.745 30.5602 972.29 30.5602H958.281V236.121ZM1107.38 266.203C1094.2 266.203 1083.63 263.352 1075.67 257.65C1067.71 251.948 1061.96 243.445 1058.42 232.139C1054.88 220.736 1053.11 206.53 1053.11 189.523V73.3239C1053.11 58.3811 1054.78 45.5029 1058.12 34.6891C1061.56 23.777 1067.27 15.3717 1075.23 9.47327C1083.19 3.47652 1094.1 0.478149 1107.97 0.478149C1118.39 0.478149 1126.99 2.19853 1133.77 5.63928C1140.65 8.98173 1146.06 13.8479 1149.99 20.2379C1153.92 26.5296 1156.68 34.1484 1158.25 43.0944C1159.92 52.0403 1160.76 62.1168 1160.76 73.3239V189.523C1160.76 206.53 1159.04 220.736 1155.6 232.139C1152.25 243.445 1146.65 251.948 1138.79 257.65C1131.02 263.352 1120.55 266.203 1107.38 266.203ZM1107.38 236.563C1112.68 236.563 1116.72 235.039 1119.47 231.992C1122.22 228.944 1124.09 223.98 1125.07 217.098C1126.05 210.217 1126.55 201.123 1126.55 189.818V71.5543C1126.55 57.7913 1125.37 47.469 1123.01 40.5875C1120.65 33.6077 1115.63 30.1178 1107.97 30.1178C1100 30.1178 1094.6 33.5094 1091.75 40.2926C1088.89 47.0758 1087.47 57.4472 1087.47 71.4069V189.818C1087.47 201.222 1087.96 210.364 1088.94 217.246C1089.93 224.029 1091.84 228.944 1094.69 231.992C1097.64 235.039 1101.87 236.563 1107.38 236.563Z" fill="#C16B49"/>
</g>
</svg>
